<?xml version="1.0" standalone="no"?>
<!DOCTYPE svg PUBLIC "-//W3C//DTD SVG 20010904//EN"
 "http://www.w3.org/TR/2001/REC-SVG-20010904/DTD/svg10.dtd">
<svg version="1.0" xmlns="http://www.w3.org/2000/svg"
 width="566.000000pt" height="566.000000pt" viewBox="0 0 566.000000 566.000000"
 preserveAspectRatio="xMidYMid meet">
<metadata>
Created by potrace 1.15, written by Peter Selinger 2001-2017
</metadata>
<g transform="translate(0.000000,566.000000) scale(0.100000,-0.100000)"
fill="#000000" stroke="none">
<path d="M0 5295 l0 -365 2830 0 2830 0 0 365 0 365 -2830 0 -2830 0 0 -365z"/>
<path d="M2843 3418 l6 -33 -14 30 c-9 19 -14 24 -15 12 0 -16 106 -237 114
-237 11 0 56 52 54 62 -1 7 4 30 12 50 10 28 17 35 26 27 10 -8 13 -3 12 23 0
18 3 47 6 63 l7 30 -15 -30 -15 -30 6 33 c7 40 -9 42 -41 6 -14 -17 -32 -26
-51 -26 -19 0 -37 9 -51 26 -32 36 -48 34 -41 -6z"/>
<path d="M140 722 c0 -265 1 -280 20 -297 18 -16 21 -16 43 -2 28 18 38 56 30
113 -4 29 -1 43 11 53 11 9 16 10 16 2 0 -6 7 -11 15 -11 19 0 71 -52 80 -79
5 -15 15 -21 37 -21 16 0 42 -9 56 -21 15 -11 67 -48 116 -82 49 -33 91 -68
93 -78 3 -10 11 -15 18 -13 16 7 31 -18 40 -67 5 -30 3 -40 -14 -56 -24 -23
-23 -59 2 -78 9 -7 14 -14 11 -18 -8 -7 -44 14 -78 45 -22 21 -27 33 -22 52 7
29 -1 56 -19 56 -22 0 -45 36 -45 73 0 27 -4 37 -16 37 -13 0 -15 -6 -10 -27
4 -16 9 -44 11 -63 3 -19 10 -48 17 -64 9 -23 9 -31 0 -34 -7 -2 -12 -9 -12
-16 0 -7 -9 -22 -21 -35 -29 -31 -18 -51 27 -51 29 0 34 -3 25 -13 -6 -8 -8
-17 -4 -20 3 -4 148 -7 321 -7 l314 0 -149 110 c-81 61 -161 121 -176 133
l-29 22 2 190 c1 105 5 255 9 335 l6 145 752 5 c770 5 812 7 752 42 -20 11
-226 13 -1126 16 l-1103 2 0 -278z"/>
<path d="M2885 910 c1 -16 -2 -30 -7 -30 -15 0 -27 -44 -14 -52 7 -5 4 -8 -8
-8 -11 0 -16 -3 -13 -7 4 -3 -2 -12 -13 -20 -22 -15 -28 -67 -9 -78 6 -4 8
-13 5 -21 -3 -9 2 -14 14 -14 18 0 60 -32 60 -46 0 -3 -14 -10 -30 -16 -72
-25 -81 -153 -18 -240 10 -14 8 -21 -12 -43 -17 -18 -19 -25 -9 -25 8 0 20 5
25 10 7 7 21 6 45 -4 28 -12 40 -12 72 -1 20 7 37 9 37 4 0 -4 10 -17 22 -29
l22 -20 -102 0 -102 0 1 -37 2 -38 6 35 c6 34 7 34 14 10 8 -24 9 -24 17 -5 6
15 9 16 9 4 1 -13 9 -15 46 -9 30 5 45 3 45 -4 0 -6 7 -2 15 8 15 20 15 20 16
0 1 -15 3 -14 9 6 l8 25 1 -27 c1 -16 6 -28 11 -28 6 0 11 12 11 28 2 24 2 23
9 -8 7 -33 7 -33 9 -7 1 27 3 28 32 22 18 -4 91 -32 163 -62 141 -59 235 -90
288 -94 34 -3 98 17 98 31 0 4 17 7 38 8 29 1 33 -1 20 -9 -10 -5 -18 -17 -18
-24 0 -8 -6 -15 -13 -15 -8 0 -14 -15 -15 -40 l-3 -40 111 0 c81 0 110 3 110
13 0 8 4 7 11 -3 9 -12 10 -12 5 4 -5 13 2 29 21 49 23 24 24 29 8 22 -11 -4
-28 -10 -37 -12 -10 -3 -15 -9 -12 -14 11 -18 -6 -9 -32 18 -14 14 -26 37 -26
50 0 26 -10 29 -28 9 -6 -8 -19 -12 -27 -9 -14 6 -14 8 3 14 13 5 5 8 -26 8
-26 1 -51 -4 -58 -11 -9 -9 -12 -8 -12 8 0 10 -15 29 -33 41 -40 27 -142 73
-163 73 -8 0 -13 4 -10 9 3 5 15 7 26 4 14 -4 20 0 20 13 0 9 8 26 18 37 9 11
11 17 5 13 -7 -4 -13 -2 -13 3 0 6 -10 11 -21 11 -18 0 -19 -3 -9 -15 13 -15
5 -39 -11 -29 -5 3 -7 10 -4 15 4 5 -1 9 -10 9 -11 0 -16 -8 -15 -22 1 -13 2
-26 1 -29 -1 -3 -82 11 -182 31 -135 28 -186 43 -203 59 -32 30 -40 26 -16 -7
12 -17 18 -35 14 -45 -9 -24 -17 -21 -43 14 -22 29 -22 33 -8 62 9 18 27 57
42 87 14 30 39 80 55 110 47 88 37 152 -29 179 -29 13 -100 91 -82 91 6 0 26
14 44 30 19 17 40 30 46 30 7 0 9 5 6 10 -4 6 -53 10 -114 10 l-108 0 2 -30z"/>
<path d="M3720 930 c-63 -3 -110 -7 -103 -8 22 -4 3 -28 -31 -40 -31 -11 -34
-16 -34 -55 -1 -52 34 -110 61 -103 11 3 17 2 14 0 -3 -3 -1 -19 3 -35 8 -26
6 -31 -12 -38 -11 -4 -43 -5 -72 -1 -28 3 -92 5 -143 4 -78 -2 -95 -5 -114
-23 l-23 -21 23 0 c31 0 61 -18 61 -36 0 -38 84 -134 118 -134 13 0 20 4 17
10 -8 12 1 12 45 0 19 -5 38 -9 41 -7 3 1 14 -4 23 -12 14 -12 19 -12 26 -2 6
11 8 11 12 0 3 -9 17 -13 41 -11 47 4 51 -21 7 -37 -33 -11 -41 -22 -11 -14
16 4 19 1 15 -14 -4 -16 3 -23 38 -36 62 -24 68 -22 68 18 0 24 5 35 14 35 22
0 30 19 16 35 -16 19 -54 19 -74 0 -18 -19 -26 -19 -26 -1 0 15 30 26 72 26
38 0 73 58 63 106 -4 21 -2 41 5 49 8 9 8 15 0 20 -7 4 -5 11 4 21 21 20 114
19 138 -3 15 -13 23 -15 37 -6 11 7 33 8 59 3 22 -4 41 -4 40 -1 -2 22 5 28
28 23 17 -3 31 2 45 17 11 11 26 21 33 21 8 0 16 9 19 20 3 11 12 20 21 20 13
0 16 11 16 51 0 56 -15 93 -35 85 -7 -2 -21 2 -32 9 -10 8 -13 15 -8 15 6 0 3
5 -5 10 -12 7 -8 10 15 10 36 0 60 14 51 29 -8 12 -348 12 -566 1z"/>
<path d="M4493 910 c4 -15 0 -20 -14 -20 -10 0 -19 -4 -19 -10 0 -5 -7 -10
-15 -10 -8 0 -15 -4 -15 -10 0 -13 26 -13 49 2 15 9 25 7 52 -9 39 -23 96 -36
104 -24 2 5 21 12 41 16 20 3 33 9 30 12 -3 3 2 12 12 19 12 10 13 13 3 14 -7
0 -11 6 -8 14 7 18 -33 26 -140 26 -80 0 -85 -1 -80 -20z"/>
<path d="M2555 669 c-123 -15 -355 -54 -406 -69 -20 -5 -44 -19 -54 -30 -55
-61 102 -68 248 -11 15 6 74 20 130 31 134 28 208 50 202 60 -11 17 -63 25
-120 19z"/>
<path d="M5083 315 c-52 -44 -52 -44 -128 -42 -56 1 -79 -3 -85 -13 -6 -10 -2
-17 12 -24 28 -14 33 -32 12 -40 -15 -6 -15 -4 -3 11 12 15 12 16 -3 10 -10
-3 -18 -2 -18 3 0 6 -4 10 -8 10 -5 0 -8 -15 -7 -32 2 -36 -13 -68 -32 -68 -7
0 -16 -6 -20 -14 -4 -7 -39 -37 -76 -65 l-68 -51 239 0 c219 0 240 2 255 18
23 25 21 34 -7 61 -19 18 -23 33 -25 90 -1 37 5 95 13 129 8 34 11 62 8 61 -4
0 -30 -20 -59 -44z"/>
</g>
</svg>
